<?xml version="1.0" encoding="utf-8"?>
<svg xmlns="http://www.w3.org/2000/svg" viewBox="123.7643 91.2778 390.4467 122.4984" width="390.447px" height="122.498px">
  <defs>
    <linearGradient x1="74.5754" y1="132.78072" x2="115.4159" y2="97.11487" gradientUnits="userSpaceOnUse" id="color-3" gradientTransform="matrix(1, 0, 0, 1, 100.49411, 25.008858)">
      <stop offset="0" stop-color="#451213"/>
      <stop offset="1" stop-color="#ac2725"/>
    </linearGradient>
    <linearGradient x1="129.61339" y1="173.14874" x2="169.41264" y2="118.14096" gradientUnits="userSpaceOnUse" id="color-4" gradientTransform="matrix(1, 0, 0, 1, 100.49411, 25.008858)">
      <stop offset="0" stop-color="#491014"/>
      <stop offset="1" stop-color="#dd3932"/>
    </linearGradient>
    <linearGradient x1="163.17288" y1="177.01201" x2="159.59245" y2="112.79142" gradientUnits="userSpaceOnUse" id="color-5" gradientTransform="matrix(1, 0, 0, 1, 100.49411, 25.008858)">
      <stop offset="0" stop-color="#5f0d17"/>
      <stop offset="1" stop-color="#fe5e41"/>
    </linearGradient>
    <linearGradient x1="141.41997" y1="99.26962" x2="171.96453" y2="80.38009" gradientUnits="userSpaceOnUse" id="color-6" gradientTransform="matrix(1, 0, 0, 1, 100.49411, 25.008858)">
      <stop offset="0" stop-color="#df2d22"/>
      <stop offset="1" stop-color="#ed6b51"/>
    </linearGradient>
    <linearGradient x1="129.94273" y1="174.81865" x2="137.50984" y2="173.45938" gradientUnits="userSpaceOnUse" id="color-7" gradientTransform="matrix(1, 0, 0, 1, 100.49411, 25.008858)">
      <stop offset="0" stop-color="#b64748"/>
      <stop offset="1" stop-color="#d5635d"/>
    </linearGradient>
    <linearGradient x1="195.3913" y1="173.39416" x2="204.29519" y2="157.67797" gradientUnits="userSpaceOnUse" id="color-8" gradientTransform="matrix(1, 0, 0, 1, 100.49411, 25.008858)">
      <stop offset="0" stop-color="#d48d70"/>
      <stop offset="1" stop-color="#c79b8f"/>
    </linearGradient>
    <linearGradient x1="210.87357" y1="142.03215" x2="208.22883" y2="157.99565" gradientUnits="userSpaceOnUse" id="color-9" gradientTransform="matrix(1, 0, 0, 1, 100.49411, 25.008858)">
      <stop offset="0" stop-color="#c98777"/>
      <stop offset="1" stop-color="#d4a897"/>
    </linearGradient>
    <linearGradient x1="55.91344" y1="139.09943" x2="54.1845" y2="161.00664" gradientUnits="userSpaceOnUse" id="color-10" gradientTransform="matrix(1, 0, 0, 1, 100.49411, 25.008858)">
      <stop offset="0" stop-color="#c98974"/>
      <stop offset="1" stop-color="#cfa69a"/>
    </linearGradient>
    <linearGradient x1="81.53873" y1="142.14405" x2="78.37981" y2="172.27002" gradientUnits="userSpaceOnUse" id="color-11" gradientTransform="matrix(1, 0, 0, 1, 100.49411, 25.008858)">
      <stop offset="0" stop-color="#c17666"/>
      <stop offset="1" stop-color="#d3af99"/>
    </linearGradient>
  </defs>
  <path d="M 224.316 93.908 C 226.481 92.31 229.942 91.237 232.664 91.279 C 233.533 91.401 234.304 91.467 235.091 91.878 C 237.484 92.58 242.324 95.82 244.72 97.246 C 251.843 101.489 259.222 105.555 266.346 109.747 L 273.884 114.203 C 274.232 114.409 276.484 115.776 276.719 115.866 C 285.395 120.974 284.918 120.962 285.204 130.687 C 285.385 131.437 285.05 131.85 285.428 132.438 C 286.179 132.766 286.948 132.711 287.796 132.805 C 287.506 132.903 287.369 132.95 287.07 133.026 L 285.053 132.842 C 284.638 136.001 285.326 140.798 284.973 143.524 L 285.18 145.237 L 285.203 153.481 C 284.976 155.279 284.851 158.671 285.012 160.506 C 284.993 162.069 285.009 163.795 284.949 165.342 L 284.952 165.501 C 284.746 166.37 284.887 167.105 284.986 167.993 C 285.091 170.753 285.292 174.601 285.1 177.299 C 284.942 178.359 284.726 179.825 284.485 180.849 C 283.327 184.102 281.66 185.925 278.751 187.768 C 271.424 192.409 263.864 196.747 256.294 200.981 C 254.072 202.225 251.294 204.283 249.141 205.333 C 247.139 207.137 242.799 208.56 240.631 210.008 C 233.304 214.9 229.315 215.198 221.901 209.905 C 215.116 205.059 214.472 199.163 215.649 191.45 C 217.06 182.195 221.399 175.198 226.885 167.773 C 229.704 163.101 234.457 158.086 238.126 154.078 C 238.614 155.042 238.726 155.233 239.427 156.049 C 241.475 157.275 244.677 161.984 246.097 164.059 C 246.275 163.411 246.42 162.699 246.536 162.033 C 247.544 156.222 249.346 150.619 250.669 144.883 C 251.853 139.746 252.862 134.632 254.23 129.536 C 254.509 128.535 254.778 127.532 255.038 126.526 C 249.565 127.199 240.889 130.17 235.238 131.668 C 231.697 132.614 228.174 133.629 224.672 134.712 C 222.75 135.286 220.029 135.998 218.246 136.721 C 221.264 139.273 224.436 141.476 227.462 144.059 C 218.188 153.371 208.43 161.862 195.485 165.558 C 185.956 168.279 179.432 168.902 178.596 157.197 C 178.818 156.23 178.778 155.215 178.744 154.233 C 178.779 151.104 178.778 147.974 178.741 144.845 L 178.746 141.835 C 178.74 138.808 178.722 135.985 178.58 132.959 L 177.467 132.854 L 177.364 130.961 C 178.504 130.742 178.315 130.453 178.545 129.426 C 178.578 128.147 178.592 125.687 179.015 124.58 C 179.452 120.342 182.967 118.601 186.216 116.633 C 188.601 115.188 190.994 113.739 193.371 112.28 C 195.915 110.759 198.469 109.255 201.033 107.767 C 201.437 107.25 210.211 102.136 211.462 101.403 C 212.414 100.698 215.539 98.923 216.717 98.259 C 219.053 96.942 221.908 95.086 224.25 93.938 L 224.316 93.908 Z" fill="url(#color-3)" style="stroke-width: 1;" transform="matrix(1, 0, 0, 1, 7.105427357601002e-15, 0)"/>
  <path d="M 264.054 124.528 C 265.549 125.246 270.69 128.088 271.072 129.513 C 271.656 131.691 271.308 137.183 271.259 139.575 C 271.207 143.075 271.191 146.575 271.212 150.075 C 271.254 155.996 271.253 161.917 271.21 167.837 C 271.195 169.703 271.212 174.752 270.876 176.414 C 269.721 177.388 268.516 178.063 267.185 178.76 C 260.799 182.104 254.676 185.869 248.476 189.534 C 244.209 191.807 240.001 194.285 235.819 196.711 C 234.983 197.195 232.362 199.253 232.074 199.383 C 231.08 200.365 229.737 201.189 231.003 202.441 C 234.656 202.946 236.301 200.325 239.2 199.905 C 241.262 199.606 245.999 201.578 247.929 200.138 C 248.83 200.481 248.575 200.808 248.81 200.926 C 249.929 201.487 251.406 201.087 252.286 202.145 C 252.415 202.723 252.466 202.546 252.245 202.979 C 251.421 203.531 249.514 204.599 249.141 205.333 C 247.139 207.137 242.799 208.56 240.631 210.008 C 233.304 214.9 229.315 215.198 221.901 209.905 C 215.116 205.059 214.472 199.163 215.648 191.45 C 217.06 182.195 221.399 175.198 226.885 167.773 C 229.704 163.101 234.457 158.086 238.126 154.078 C 238.614 155.042 238.726 155.233 239.427 156.049 C 241.475 157.275 244.677 161.984 246.097 164.059 C 246.275 163.411 246.42 162.698 246.536 162.033 C 247.544 156.222 249.346 150.619 250.669 144.883 C 251.853 139.746 252.862 134.632 254.23 129.536 L 254.514 129.629 L 254.672 129.773 C 253.952 131.482 253.785 135.643 254.487 137.318 C 255.62 140.018 259.498 142.589 261.643 144.603 C 262.422 145.335 263.102 145.498 263.869 146.379 L 263.995 146.526 C 265.76 146.616 268.469 148.641 270.518 149.067 C 270.567 149.001 270.619 148.938 270.664 148.87 C 271.054 148.277 271.178 132.794 271.051 131.419 C 270.971 130.55 270.761 129.548 270.284 128.803 C 269.35 127.344 264.369 125.673 264.054 124.528 Z" fill="url(#color-4)" style="stroke-width: 1;" transform="matrix(1, 0, 0, 1, 7.105427357601002e-15, 0)"/>
  <path d="M 226.885 167.773 C 227.582 168.015 227.789 167.958 228.502 167.79 L 228.528 167.983 L 228.369 168.162 C 227.668 168.958 226.875 170.154 226.537 171.159 C 225.842 171.972 224.523 173.462 224.18 174.311 C 223.738 175.405 222.913 177.899 223.855 178.729 C 223.868 178.74 223.446 179.776 223.395 179.921 C 222.486 182.226 221.653 184.262 221.119 186.703 C 220.597 189.091 221.08 190.966 221.655 193.313 L 221.833 193.2 L 221.67 192.374 C 222.115 192.321 225.165 193.677 225.71 194.007 C 227.994 195.39 230.126 197.167 232.349 198.655 C 232.148 199.014 232.042 199.05 232.074 199.383 C 231.08 200.365 229.737 201.189 231.003 202.441 C 234.656 202.946 236.301 200.325 239.2 199.905 C 241.262 199.606 245.999 201.578 247.929 200.138 C 248.83 200.481 248.575 200.808 248.81 200.926 C 249.93 201.487 251.406 201.087 252.286 202.145 C 252.415 202.723 252.466 202.546 252.245 202.979 C 251.421 203.531 249.514 204.599 249.141 205.333 C 247.139 207.137 242.799 208.56 240.631 210.008 C 233.304 214.9 229.315 215.198 221.901 209.905 C 215.116 205.059 214.472 199.163 215.649 191.45 C 217.06 182.195 221.399 175.198 226.885 167.773 Z" fill="#421312" style="stroke-width: 1;" transform="matrix(1, 0, 0, 1, 7.105427357601002e-15, 0)"/>
  <path d="M 238.126 154.078 C 238.614 155.042 238.726 155.233 239.427 156.049 L 239.135 156.097 C 238.447 155.488 238.48 155.12 237.875 154.994 C 236.727 155.796 235.368 157.478 234.516 158.594 L 234.704 158.856 C 235.975 158.445 237.049 156.462 238.154 156.51 C 237.955 156.946 236.23 158.266 235.772 158.714 C 232.095 162.317 229.627 167.019 226.537 171.159 C 226.875 170.154 227.668 168.958 228.369 168.162 L 228.528 167.983 L 228.502 167.79 C 227.789 167.958 227.582 168.015 226.885 167.773 C 229.704 163.101 234.457 158.086 238.126 154.078 Z" fill="#290906" style="stroke-width: 1;" transform="matrix(1, 0, 0, 1, 7.105427357601002e-15, 0)"/>
  <path d="M 232.345 105.814 C 234.239 107.136 237.287 108.746 239.362 109.985 C 244.285 112.992 249.24 115.945 254.228 118.843 C 257.25 120.597 261.214 122.689 264.054 124.528 C 264.369 125.673 269.35 127.344 270.284 128.803 C 270.761 129.548 270.971 130.55 271.051 131.419 C 271.178 132.794 271.054 148.277 270.664 148.87 C 270.619 148.938 270.567 149.001 270.518 149.067 C 268.469 148.641 265.76 146.616 263.995 146.526 L 263.869 146.379 C 263.102 145.498 262.422 145.335 261.643 144.603 C 259.498 142.589 255.62 140.018 254.487 137.318 C 253.785 135.643 253.952 131.482 254.672 129.773 L 254.514 129.629 L 254.23 129.536 C 254.509 128.535 254.778 127.532 255.038 126.526 C 249.565 127.199 240.889 130.17 235.238 131.668 L 235.225 131.33 C 224.692 134.807 218.988 135.066 210.277 127.121 C 209.454 126.37 209.395 125.066 209.192 124.871 C 207.85 123.576 208.177 122.377 207.771 121.43 C 207.328 121.373 207.017 121.398 206.72 121.086 C 206.78 119.618 215.936 116.043 216.472 114.626 C 220.21 112.158 228.27 107.767 232.345 105.814 Z" fill="#d1362d" style="stroke-width: 1;" transform="matrix(1, 0, 0, 1, 7.105427357601002e-15, 0)"/>
  <path d="M 274.74 131.157 C 274.914 133.197 274.586 140.91 274.945 142.126 C 275.19 141.802 275.08 140.378 275.135 139.751 L 275.267 140.881 L 275.415 140.966 C 275.72 140.397 275.849 139.574 275.992 138.923 C 276.419 139.321 277.15 140.6 277.476 140.599 C 278.712 140.591 279.968 141.293 281.169 141.245 C 281.624 140.375 280.814 137.657 282.273 136.673 L 282.671 136.643 C 283.61 137.674 282.548 139.054 282.954 140.235 C 283.473 139.755 282.975 138.476 283.656 137.505 C 284.001 137.646 284.103 137.802 284.497 138.026 C 285.282 139.463 284.206 142.628 284.973 143.524 L 285.18 145.237 L 285.203 153.481 C 284.976 155.279 284.851 158.671 285.012 160.506 C 284.993 162.069 285.009 163.794 284.949 165.342 L 284.952 165.501 C 284.746 166.37 284.887 167.105 284.986 167.993 C 285.091 170.753 285.292 174.601 285.1 177.299 C 284.942 178.359 284.726 179.825 284.485 180.849 C 283.327 184.102 281.66 185.925 278.751 187.768 C 271.424 192.409 263.864 196.747 256.294 200.981 C 254.072 202.225 251.294 204.283 249.141 205.333 C 249.514 204.599 251.421 203.531 252.245 202.979 C 252.466 202.546 252.415 202.723 252.286 202.145 C 251.406 201.087 249.929 201.487 248.81 200.926 C 248.575 200.808 248.83 200.481 247.929 200.138 C 245.999 201.578 241.262 199.606 239.2 199.905 C 236.301 200.325 234.656 202.946 231.003 202.441 C 235.536 201.927 244.835 196.21 248.76 193.488 C 249.87 192.964 253.531 190.609 254.8 189.852 L 266.287 182.945 C 268.615 181.548 271.472 180.055 273.524 178.316 C 274.174 177.763 274.478 175.635 274.538 174.761 C 274.989 168.161 274.89 161.342 274.802 154.736 C 274.697 146.877 274.677 139.017 274.74 131.157 Z" fill="url(#color-5)" style="stroke-width: 1;" transform="matrix(1, 0, 0, 1, 7.105427357601002e-15, 0)"/>
  <path d="M 224.316 93.908 C 226.481 92.31 229.942 91.237 232.664 91.279 C 233.533 91.401 234.304 91.467 235.091 91.878 C 237.484 92.58 242.324 95.82 244.72 97.246 C 251.843 101.489 259.222 105.555 266.346 109.747 L 273.884 114.203 C 274.232 114.409 276.484 115.776 276.719 115.866 C 285.395 120.974 284.918 120.962 285.204 130.687 C 285.385 131.437 285.05 131.85 285.428 132.438 C 286.179 132.766 286.948 132.711 287.796 132.805 C 287.506 132.903 287.369 132.95 287.07 133.026 L 285.053 132.842 C 284.638 136.001 285.326 140.798 284.973 143.524 C 284.206 142.628 285.282 139.463 284.497 138.026 C 284.103 137.802 284.001 137.646 283.656 137.505 C 282.975 138.476 283.473 139.755 282.954 140.235 C 282.548 139.054 283.61 137.674 282.671 136.643 L 282.273 136.673 C 280.814 137.657 281.624 140.375 281.169 141.245 C 279.968 141.293 278.712 140.591 277.476 140.599 C 277.15 140.6 276.419 139.321 275.992 138.923 C 275.849 139.574 275.72 140.397 275.415 140.966 L 275.267 140.881 L 275.135 139.751 C 275.08 140.378 275.19 141.802 274.945 142.126 C 274.586 140.91 274.914 133.197 274.74 131.157 C 274.708 129.553 274.713 128.367 274.44 126.776 C 272.731 125.469 268.536 123.036 266.478 121.755 C 258.844 117.02 251.088 112.486 243.216 108.159 C 240.359 106.568 236.18 103.931 233.228 102.916 C 230.323 101.918 225.25 105.586 222.576 107.006 C 222.993 105.883 229.042 103.063 230.492 102.688 L 230.151 102.358 L 230.501 102.007 C 230.163 101.301 230.116 100.475 229.717 99.58 C 228.842 97.619 226.951 95.692 224.996 94.799 C 224.478 94.562 224.235 94.761 223.882 94.972 L 223.67 94.78 C 223.892 94.485 223.899 94.535 224.249 94.341 L 224.25 93.938 L 224.316 93.908 Z" fill="url(#color-6)" style="stroke-width: 1;" transform="matrix(1, 0, 0, 1, 7.105427357601002e-15, 0)"/>
  <path d="M 276.719 115.866 C 285.395 120.974 284.918 120.962 285.204 130.687 C 285.385 131.437 285.05 131.85 285.427 132.438 C 286.179 132.766 286.948 132.711 287.796 132.805 C 287.506 132.903 287.369 132.95 287.07 133.026 L 285.053 132.842 C 284.638 136.001 285.326 140.798 284.973 143.524 C 284.206 142.628 285.282 139.463 284.497 138.026 C 284.103 137.802 284.001 137.646 283.656 137.505 C 281.339 132.549 285.582 126.463 279.791 118.651 L 280.603 119.057 L 280.782 118.843 C 280.351 118.355 277.854 116.821 277.171 116.732 L 276.719 115.866 Z" fill="#d1362d" style="stroke-width: 1;" transform="matrix(1, 0, 0, 1, 7.105427357601002e-15, 0)"/>
  <path d="M 235.091 91.878 C 237.484 92.58 242.324 95.82 244.72 97.246 C 251.843 101.489 259.222 105.555 266.346 109.747 L 273.884 114.203 C 274.232 114.409 276.484 115.776 276.719 115.866 L 277.171 116.732 L 276.939 116.731 C 272.755 114.049 268.132 111.8 263.926 108.932 C 261.224 107.09 257.67 105.631 254.73 103.723 C 249.01 100.011 242.702 96.81 236.754 93.473 C 236.36 93.26 235.398 92.258 235.091 91.878 Z" fill="#b82121" style="stroke-width: 1;" transform="matrix(1, 0, 0, 1, 7.105427357601002e-15, 0)"/>
  <path d="M 224.316 93.908 C 226.481 92.31 229.942 91.237 232.664 91.279 C 230.9 91.912 226.13 93.586 224.316 93.908 Z" fill="#b82121" style="stroke-width: 1;" transform="matrix(1, 0, 0, 1, 7.105427357601002e-15, 0)"/>
  <path d="M 222.576 107.006 C 225.25 105.586 230.323 101.918 233.228 102.916 C 236.18 103.931 240.359 106.568 243.216 108.159 C 251.088 112.486 258.844 117.02 266.478 121.755 C 268.536 123.036 272.731 125.469 274.44 126.776 C 274.713 128.367 274.708 129.553 274.74 131.157 C 274.677 139.017 274.698 146.877 274.802 154.736 C 274.89 161.342 274.989 168.161 274.538 174.761 C 274.478 175.635 274.174 177.763 273.524 178.316 C 271.472 180.055 268.615 181.548 266.287 182.945 L 254.8 189.852 C 253.531 190.609 249.87 192.964 248.76 193.488 C 244.835 196.21 235.536 201.927 231.003 202.441 C 229.737 201.189 231.08 200.365 232.074 199.383 C 232.362 199.253 234.983 197.195 235.819 196.711 C 240.001 194.285 244.209 191.807 248.476 189.534 C 254.676 185.869 260.799 182.104 267.185 178.76 C 268.516 178.063 269.721 177.388 270.876 176.414 C 271.212 174.752 271.195 169.703 271.21 167.837 C 271.253 161.917 271.254 155.996 271.212 150.075 C 271.191 146.575 271.207 143.075 271.259 139.575 C 271.308 137.183 271.656 131.691 271.072 129.513 C 270.69 128.088 265.549 125.246 264.054 124.528 C 261.214 122.689 257.25 120.597 254.228 118.843 C 249.24 115.945 244.285 112.992 239.362 109.985 C 237.287 108.746 234.239 107.136 232.345 105.814 C 228.27 107.767 220.21 112.158 216.472 114.626 C 211.147 117.641 205.889 120.728 200.506 123.66 C 199.379 124.274 192.601 127.978 192.378 128.988 C 191.875 131.257 191.943 135.194 191.901 137.603 C 191.799 141.859 191.747 146.116 191.746 150.373 C 191.743 152.003 192.382 157.887 189.958 157.762 C 189.187 157.067 189.273 155.361 189.314 154.382 C 189.432 151.539 189.404 148.747 189.346 145.902 L 189.139 135.862 C 189.101 133.523 188.737 127.57 190.535 125.952 C 193.091 123.651 198.041 121.93 200.598 119.689 C 205.477 117.081 210.722 114.002 215.486 111.174 C 217.496 109.981 220.768 108.272 222.576 107.006 Z" fill="#e59b79" style="stroke-width: 1;" transform="matrix(1, 0, 0, 1, 7.105427357601002e-15, 0)"/>
  <path d="M 248.476 189.534 C 247.889 190.458 238.808 195.272 237.231 196.3 C 237.477 197.037 237.954 198.779 238.453 199.282 C 240.533 198.57 247.163 193.621 248.76 193.488 C 244.835 196.21 235.536 201.927 231.003 202.441 C 229.737 201.189 231.08 200.365 232.074 199.383 C 232.362 199.253 234.983 197.195 235.819 196.711 C 240.001 194.285 244.209 191.807 248.476 189.534 Z" fill="url(#color-7)" style="stroke-width: 1;" transform="matrix(1, 0, 0, 1, 7.105427357601002e-15, 0)"/>
  <path d="M 211.462 101.403 C 212.414 100.698 215.539 98.923 216.717 98.259 C 219.052 96.942 221.908 95.086 224.25 93.938 L 224.249 94.341 C 223.898 94.535 223.892 94.485 223.67 94.78 L 223.882 94.972 C 224.235 94.761 224.478 94.562 224.996 94.799 C 226.95 95.692 228.842 97.619 229.717 99.58 C 230.116 100.475 230.163 101.301 230.501 102.007 L 230.151 102.358 L 230.492 102.688 C 229.042 103.063 222.993 105.882 222.576 107.006 C 220.768 108.272 217.496 109.981 215.486 111.174 C 210.722 114.002 205.477 117.081 200.598 119.689 C 199.875 119.211 197.083 122.052 195.517 122.268 L 195.287 122.048 C 195.556 120.994 194.5 119.662 194.253 118.537 C 194.006 117.481 193.955 116.366 193.882 115.286 C 193.847 114.778 194.355 114.464 194.718 114.166 L 194.245 113.69 C 194.342 111.741 207.048 106.612 208.132 104.526 L 211.574 101.876 L 211.462 101.403 Z" fill="#b82121" style="stroke-width: 1;" transform="matrix(1, 0, 0, 1, 7.105427357601002e-15, 0)"/>
  <path d="M 193.371 112.28 C 193.393 112.707 193.351 112.659 193.503 113.045 C 190.483 114.705 185.52 117.995 182.498 120.014 C 182.357 119.812 182.408 119.93 182.442 119.615 C 180.504 119.945 179.213 124.68 179.128 124.717 L 179.015 124.58 C 179.452 120.342 182.967 118.601 186.216 116.633 C 188.601 115.188 190.994 113.739 193.371 112.28 Z" fill="#290906" style="stroke-width: 1;" transform="matrix(1, 0, 0, 1, 7.105427357601002e-15, 0)"/>
  <path d="M 201.033 107.767 C 201.437 107.25 210.211 102.136 211.462 101.403 L 211.574 101.876 L 208.132 104.526 C 206.988 105.22 202.338 108.136 201.363 108.316 C 201.782 107.959 201.683 108.17 201.793 107.733 L 202.072 107.567 C 201.658 107.733 201.496 107.827 201.033 107.767 Z" fill="#b82121" style="stroke-width: 1;" transform="matrix(1, 0, 0, 1, 7.105427357601002e-15, 0)"/>
  <path d="M 201.033 107.767 C 201.496 107.827 201.658 107.733 202.072 107.567 L 201.793 107.733 C 201.683 108.17 201.782 107.959 201.363 108.316 C 200.806 108.593 199.829 109.297 199.187 109.679 L 193.503 113.045 C 193.351 112.659 193.393 112.707 193.371 112.28 C 195.915 110.759 198.469 109.255 201.033 107.767 Z" fill="#421312" style="stroke-width: 1;" transform="matrix(1, 0, 0, 1, 7.105427357601002e-15, 0)"/>
  <path d="M 177.364 130.961 C 178.504 130.742 178.315 130.453 178.545 129.426 L 178.58 132.959 L 177.467 132.854 L 177.364 130.961 Z" fill="#f9d4cd" style="stroke-width: 1;" transform="matrix(1, 0, 0, 1, 7.105427357601002e-15, 0)"/>
  <path d="M 443.737 138.741 C 446.376 139.308 446.634 139.237 449.375 138.884 C 449.586 146.305 449.26 153.827 449.465 161.258 C 449.534 163.776 449.629 166.256 449.583 168.777 C 448.017 168.957 446.437 168.997 444.863 168.897 C 444.629 167.868 444.584 166.98 444.503 165.935 C 443.61 166.831 443.041 167.554 442.261 168.535 C 440.362 169.253 438.488 169.079 436.504 168.947 C 426.158 166.92 426.732 149.185 437.188 147.743 C 440.077 147.343 441.724 147.358 444.086 149.133 C 443.823 145.675 443.706 142.208 443.737 138.741 Z" fill="#421312" style="stroke-width: 1;" transform="matrix(1, 0, 0, 1, 7.105427357601002e-15, 0)"/>
  <path d="M 438.785 152.349 C 440.299 152.251 443.128 152.408 443.617 154.302 C 443.998 155.777 443.964 157.955 443.917 159.515 C 443.811 163.016 444.159 163.647 440.466 164.142 C 435.849 163.828 434.53 159.597 435.617 155.543 C 436.041 153.963 437.348 153.019 438.785 152.349 Z" style="stroke-width: 1;" fill="#fdf7e9" transform="matrix(1, 0, 0, 1, 7.105427357601002e-15, 0)"/>
  <path d="M 206.361 169.552 C 206.825 169.036 208.994 167.6 209.72 167.073 C 212.412 165.122 215.201 163.343 217.724 161.157 C 219.866 159.268 221.961 157.327 224.007 155.335 C 226.684 152.683 230.098 148.387 233.459 147.074 C 232.093 152.499 229.639 154.814 226.106 158.953 C 219.702 166.454 214.439 173.07 210.456 182.154 C 207.161 189.67 207.004 192.935 206.833 201.175 L 206.614 201.225 C 206.32 200.471 207.189 198.945 206.352 197.01 C 205.117 194.152 202.747 192.971 201.389 190.406 C 199.373 186.597 198.331 182.112 195.753 178.579 C 195.526 178.268 195.378 177.638 195.121 177.256 C 192.858 177.636 191.47 179.5 188.817 179.335 C 194.767 177.378 200.007 174.045 205.333 170.744 C 205.916 170.382 206.254 170.204 206.361 169.552 Z" fill="#e59b79" style="stroke-width: 1;" transform="matrix(1, 0, 0, 1, 7.105427357601002e-15, 0)"/>
  <path d="M 463.209 140.032 C 464.535 139.984 468.282 139.598 469.099 140.619 C 469.735 142.186 472.611 149.267 472.915 150.666 C 473.759 152.373 474.974 155.706 475.661 157.562 C 476.97 161.1 478.604 165.228 479.61 168.839 C 477.849 168.894 475.841 169 474.099 168.985 C 473.15 166.67 472.348 164.485 470.967 162.379 C 467.615 162.382 464.172 162.427 460.827 162.381 C 460.438 163.163 460.031 163.941 459.716 164.756 C 459.257 167.243 459.532 168.688 456.63 168.649 C 455.592 168.762 453.818 168.762 452.724 168.796 C 453.882 164.469 456.315 158.372 457.849 153.98 C 459.262 149.936 461.26 143.495 463.209 140.032 Z" fill="#b82121" style="stroke-width: 1;" transform="matrix(1, 0, 0, 1, 7.105427357601002e-15, 0)"/>
  <path d="M 472.915 150.666 L 472.625 150.611 C 471.852 149.15 471.567 147.448 470.938 146.227 L 470.63 146.19 C 470.579 146.627 472.295 150.388 472.173 150.971 C 472.022 150.755 471.785 150.379 471.727 150.127 C 471.26 148.129 468.341 142.282 469.099 140.619 C 469.735 142.186 472.611 149.267 472.915 150.666 Z" fill="#800004" style="stroke-width: 1;" transform="matrix(1, 0, 0, 1, 7.105427357601002e-15, 0)"/>
  <path d="M 456.63 168.649 C 457.161 167.159 458.351 165.624 459.716 164.756 C 459.257 167.243 459.532 168.688 456.63 168.649 Z" fill="#d1362d" style="stroke-width: 1;" transform="matrix(1, 0, 0, 1, 7.105427357601002e-15, 0)"/>
  <path d="M 466.051 146.751 C 466.692 147.201 469.114 156.417 469.501 157.821 L 465.515 157.81 C 464.474 157.805 463.163 157.659 462.105 157.57 C 463.047 153.739 465.257 149.953 466.051 146.751 Z" fill="#fdf7e9" style="stroke-width: 1;" transform="matrix(1, 0, 0, 1, 7.105427357601002e-15, 0)"/>
  <path d="M 391.554 147.738 C 394.559 147.522 396.627 147.7 399.204 149.442 C 401.406 150.927 402.905 153.249 403.351 155.868 C 404.461 162.094 401.642 168.041 395.052 169.139 C 389.148 169.344 384.409 168.209 383.007 161.607 C 381.537 154.683 384.172 149.011 391.554 147.738 Z" fill="#421312" style="stroke-width: 1;" transform="matrix(1, 0, 0, 1, 7.105427357601002e-15, 0)"/>
  <path d="M 392.165 152.53 C 394.573 152.363 396.718 152.905 397.555 155.382 C 398.755 158.929 398.108 162.779 394.411 164.21 C 388.836 165.063 387.421 159.463 388.901 155.169 C 389.415 153.674 390.78 153.017 392.165 152.53 Z" fill="#fdf7e9" style="stroke-width: 1;" transform="matrix(1, 0, 0, 1, 7.105427357601002e-15, 0)"/>
  <path d="M 358.719 139.858 C 361.856 139.635 365.721 140.114 368.401 141.906 C 369.222 142.457 369.934 143.639 369.15 144.513 C 368.906 144.544 368.285 144.607 368.161 144.743 C 367.875 145.055 367.313 147.122 367.185 147.527 C 364.775 146.109 364.35 145.162 361.311 145.088 C 349.109 144.791 348.727 164.215 360.923 163.905 C 363.814 163.831 365.677 163.44 367.745 161.296 C 368.207 162.204 369.211 165.551 369.578 166.704 C 367.499 168.192 365.629 168.604 363.124 169.062 C 354.507 170.579 347.285 165.906 345.963 157.117 C 344.621 148.198 349.646 140.993 358.719 139.858 Z" fill="#421312" style="stroke-width: 1;" transform="matrix(1, 0, 0, 1, 7.105427357601002e-15, 0)"/>
  <path d="M 407.027 147.679 C 408.992 147.829 410.706 147.853 412.681 148.098 C 412.854 151.891 412.811 155.655 412.914 159.439 C 412.947 160.61 413.466 162.764 414.431 163.479 C 415.659 164.392 418.581 163.915 420.058 163.778 C 420.134 158.648 419.931 153.036 419.861 147.854 C 421.828 147.892 423.795 147.897 425.762 147.868 C 425.503 149.989 425.542 152.124 425.533 154.26 C 425.49 159.492 425.702 163.73 426.104 168.933 C 422.751 168.842 422.437 168.695 419.244 168.274 C 418.222 169.23 414.879 168.98 413.499 168.949 C 406.356 168.794 406.748 161.428 406.828 156.25 C 406.874 153.341 406.792 150.523 407.027 147.679 Z" fill="#421312" style="stroke-width: 1;" transform="matrix(1, 0, 0, 1, 7.105427357601002e-15, 0)"/>
  <path d="M 327.179 153.782 C 329.089 151.997 331.571 149.39 334.373 149.514 C 335.846 149.582 337.229 150.241 338.212 151.341 C 341.43 154.889 339.189 161.299 334.265 160.993 C 331.855 160.844 329.372 157.869 327.347 156.598 C 317.029 156.707 306.796 157.278 296.499 157.052 C 293.156 156.978 288.412 157.14 285.182 156.692 C 285.153 157.584 285.137 159.715 285.012 160.506 C 284.851 158.671 284.976 155.279 285.203 153.481 C 294.27 153.581 303.338 153.625 312.405 153.615 C 316.262 153.605 323.55 153.3 327.179 153.782 Z" fill="#cc907b" style="stroke-width: 1;" transform="matrix(1, 0, 0, 1, 7.105427357601002e-15, 0)"/>
  <path d="M 334.229 152.18 C 338.034 151.833 337.648 156.701 334.927 158.668 C 332.485 158.752 330.692 154.366 334.229 152.18 Z" fill="#fde1b1" style="stroke-width: 1;" transform="matrix(1, 0, 0, 1, 7.105427357601002e-15, 0)"/>
  <path d="M 135.876 156.698 C 134.89 157.78 134.144 158.683 133.012 159.711 C 129.093 163.271 123.387 159.636 123.784 154.745 C 123.997 152.124 127.481 149.026 130.19 149.49 C 132.213 149.837 134.761 152.338 135.873 153.966 C 139.501 153.632 176.766 153.483 178.744 154.233 C 178.778 155.215 178.817 156.23 178.596 157.197 C 178.603 156.246 178.635 155.375 178.512 154.431 C 178.23 154.317 178.369 154.362 177.956 154.501 C 177.544 155.072 177.515 155.602 177.385 156.303 C 177.039 156.591 176.733 156.669 176.269 156.678 C 167.82 156.832 159.359 157.073 150.915 156.776 C 145.937 156.6 140.854 157.061 135.876 156.698 Z" fill="#cc907b" style="stroke-width: 1;" transform="matrix(1, 0, 0, 1, 7.105427357601002e-15, 0)"/>
  <path d="M 128.847 152.004 C 131.96 151.979 133.632 155.628 130.148 157.917 C 129.98 157.914 129.812 157.904 129.645 157.888 C 125.769 157.488 125.846 153.966 128.847 152.004 Z" fill="#fde1b1" style="stroke-width: 1;" transform="matrix(1, 0, 0, 1, 7.105427357601002e-15, 0)"/>
  <path d="M 506.831 147.585 C 509.332 147.384 511.729 147.956 513.967 149.032 C 513.861 150.87 513.615 152.396 513.325 154.215 C 512.381 153.719 511.108 152.988 510.058 152.71 C 500.315 150.128 500.399 165.23 509.709 164.166 C 511.111 164.006 512.261 163.155 513.538 162.444 C 513.684 163.203 513.746 163.96 513.823 164.729 C 513.893 165.698 514.07 166.752 514.211 167.723 C 512.917 168.444 511.717 168.894 510.24 169.054 C 504.585 169.666 499.582 168.393 497.356 162.693 C 494.51 155.411 499.238 148.386 506.831 147.585 Z" fill="#b82121" style="stroke-width: 1;" transform="matrix(1, 0, 0, 1, 7.105427357601002e-15, 0)"/>
  <path d="M 285.1 177.299 L 285.299 177.714 C 286.207 177.95 286.555 177.654 287.585 177.903 C 290.518 177.939 295.162 177.72 297.889 178.458 C 299.858 178.991 302.696 184.54 303.805 186.312 C 305.504 189.028 307.097 191.564 309.122 194.052 C 310.886 194.497 312.391 194.891 314.01 195.777 C 315.072 197.37 316.248 198.994 315.788 201.044 C 314.669 206.047 307.898 207.855 305.068 203.116 C 302.942 199.556 304.068 199.375 305.868 196.481 C 304.411 193.205 299.099 183.088 296.532 181.068 C 293.786 180.666 288.179 180.832 285.247 180.849 L 284.485 180.849 C 284.726 179.825 284.942 178.359 285.1 177.299 Z" fill="url(#color-8)" style="stroke-width: 1;" transform="matrix(1, 0, 0, 1, 7.105427357601002e-15, 0)"/>
  <path d="M 285.1 177.299 L 285.299 177.714 C 286.207 177.95 286.555 177.654 287.585 177.903 C 286.909 177.877 286.462 177.768 285.93 178.145 C 285.464 178.763 285.549 179.819 285.247 180.848 L 284.485 180.849 C 284.726 179.825 284.942 178.359 285.1 177.299 Z" fill="#f9d4cd" style="stroke-width: 1;" transform="matrix(1, 0, 0, 1, 7.105427357601002e-15, 0)"/>
  <path d="M 309.378 197.008 C 313.433 196.987 314.722 199.998 311.338 202.584 C 307.119 203.648 306.548 199.335 309.378 197.008 Z" fill="#fde1b1" style="stroke-width: 1;" transform="matrix(1, 0, 0, 1, 7.105427357601002e-15, 0)"/>
  <path d="M 154.482 116.427 C 152.431 115.935 149.998 115.585 148.598 113.887 C 147.768 112.877 147.384 111.574 147.533 110.276 C 148.081 105.866 154.487 103.027 157.595 106.839 C 158.665 108.153 159.199 110.679 159.103 112.329 C 159.036 113.46 158.305 114.051 157.479 114.675 C 159.218 117.804 165.608 128.511 168.001 130.7 C 170.494 130.745 175.215 130.38 177.364 130.961 L 177.467 132.854 C 175.983 133.558 168.251 133.269 166.162 133.22 C 162.643 130.797 157.393 120.4 154.482 116.427 Z" fill="#cc907b" style="stroke-width: 1;" transform="matrix(1, 0, 0, 1, 7.105427357601002e-15, 0)"/>
  <path d="M 153.378 107.749 C 155.384 107.869 156.357 109.241 156.808 111.051 C 157.187 112.575 156.205 113.073 154.966 113.267 C 151.309 112.992 149.222 109.563 153.378 107.749 Z" fill="#fdf7e9" style="stroke-width: 1;" transform="matrix(1, 0, 0, 1, 7.105427357601002e-15, 0)"/>
  <path d="M 316.052 125.969 L 328.426 125.933 C 329.712 125.931 333.927 125.662 334.783 126.269 C 335.079 126.842 335.106 128.439 334.442 128.584 C 328.95 129.785 322.04 128.251 316.624 129.233 C 314.629 131.13 313.19 133.57 311.621 135.817 C 309.999 138.143 307.181 142.701 304.95 144.225 C 302.839 145.669 290.084 145.373 286.677 145.289 C 286.177 145.279 285.68 145.261 285.18 145.237 L 284.973 143.524 C 285.326 140.798 284.638 136.001 285.053 132.842 C 285.264 135.316 285.136 139.207 285.122 141.838 C 290.18 141.83 297.601 141.661 302.472 141.997 C 305.832 138.671 308.798 133.943 311.981 130.326 C 313.457 128.648 314.111 127.334 316.052 125.969 Z" fill="#cc907b" style="stroke-width: 1;" transform="matrix(1, 0, 0, 1, 7.105427357601002e-15, 0)"/>
  <path d="M 284.949 165.342 C 286.31 165.291 289.682 165.386 291.081 165.542 C 295.507 165.513 300.024 165.387 304.433 165.588 C 305.336 167.145 307.576 169.819 308.743 171.354 C 311.326 174.811 313.929 178.253 316.552 181.68 C 319.337 181.644 333.21 180.962 334.795 181.655 C 335.448 182.376 335.461 183.571 334.941 184.352 C 333.973 184.848 317.058 184.979 316.176 184.501 C 310.698 181.542 306.63 172.716 302.044 168.479 C 298.692 168.48 287.65 168.705 284.986 167.993 C 284.887 167.105 284.746 166.37 284.952 165.501 L 284.949 165.342 Z" fill="url(#color-9)" style="stroke-width: 1;" transform="matrix(1, 0, 0, 1, 7.105427357601002e-15, 0)"/>
  <path d="M 284.949 165.342 C 286.31 165.291 289.682 165.386 291.081 165.542 C 289.392 166.18 286.377 166.984 284.952 165.501 L 284.949 165.342 Z" fill="#cc907b" style="stroke-width: 1;" transform="matrix(1, 0, 0, 1, 7.105427357601002e-15, 0)"/>
  <path d="M 306.603 114.757 C 305.326 113.021 304.25 112.303 304.632 109.833 C 304.881 108.317 305.712 106.959 306.949 106.048 C 311.104 103.035 316.843 106.996 315.601 112.026 C 314.638 115.929 311.338 114.96 308.839 117.058 C 307.516 118.202 306.692 120.173 305.69 121.606 C 304.099 123.941 300 131.627 297.961 132.832 C 297.014 133.391 288.422 133.145 287.07 133.026 C 287.369 132.95 287.506 132.903 287.796 132.805 C 286.948 132.711 286.179 132.766 285.428 132.438 C 285.05 131.85 285.385 131.437 285.204 130.687 C 288.496 130.432 293.187 131.054 296.298 130.519 C 298.735 127.867 305.226 118.06 306.603 114.757 Z" fill="#cc907b" style="stroke-width: 1;" transform="matrix(1, 0, 0, 1, 7.105427357601002e-15, 0)"/>
  <path d="M 309.541 107.93 C 313.169 107.636 315.568 111.97 311.702 113.917 C 310.068 113.929 309.858 113.92 308.367 113.324 C 306.668 111.01 307.373 109.448 309.541 107.93 Z" fill="#fde1b1" style="stroke-width: 1;" transform="matrix(1, 0, 0, 1, 7.105427357601002e-15, 0)"/>
  <path d="M 160.082 165.514 C 165.834 165.845 173.599 165.653 179.432 165.602 C 181.124 167.195 182.015 167.847 183.956 168.999 C 176.787 167.924 168.637 168.202 161.304 168.134 C 159.604 171.517 152.943 179.8 150.206 182.558 C 149.53 183.281 148.816 183.931 148.091 184.604 C 141.475 184.462 134.587 184.621 128.057 184.389 C 127.69 183.657 128.214 182.517 128.482 181.787 C 134.484 181.083 140.713 181.704 146.748 181.578 C 148.796 180.988 149.841 178.079 151.117 176.684 C 154.07 173.456 156.772 168.568 159.903 165.677 L 160.082 165.514 Z" fill="url(#color-10)" style="stroke-width: 1;" transform="matrix(1, 0, 0, 1, 7.105427357601002e-15, 0)"/>
  <path d="M 146.965 128.925 C 141.399 128.751 135.338 129.26 129.789 128.655 C 129.028 128.572 128.665 128.378 128.449 127.641 C 128.6 126.696 129.288 126.019 130.244 125.99 C 135.957 125.816 141.977 125.635 147.678 125.795 C 151.533 127.921 156.791 138.009 160.996 142.198 C 165.973 142.515 173.785 141.3 178.417 142.257 L 178.746 141.835 L 178.741 144.845 C 177.414 144.77 174.939 145.03 173.468 145.032 C 169.065 145.036 164.196 145.331 159.827 144.925 C 156.741 142.101 152.887 136.369 150.084 132.98 C 149.074 131.758 148.09 130.061 146.965 128.925 Z" fill="#cc907b" style="stroke-width: 1;" transform="matrix(1, 0, 0, 1, 7.105427357601002e-15, 0)"/>
  <path d="M 373.146 139.005 C 375.635 139.261 376.54 139.325 379.018 139.078 C 378.255 144.362 378.616 150.125 378.677 155.509 C 378.718 159.156 378.507 165.113 378.897 168.626 L 378.831 168.77 C 377.994 169.289 374.433 168.885 373.244 168.757 C 372.943 167.054 373.026 164.011 373.03 162.187 L 373.053 152.116 C 373.048 149.749 372.861 140.696 373.146 139.005 Z" fill="#421312" style="stroke-width: 1;" transform="matrix(1, 0, 0, 1, 7.105427357601002e-15, 0)"/>
  <path d="M 486.763 147.496 C 487.118 147.552 486.947 147.501 487.254 147.738 C 487.499 148.574 487.467 149.663 487.482 150.556 C 490.067 147.873 490.94 148.091 494.69 147.59 C 494.824 149.258 494.901 150.595 494.917 152.267 C 486.694 154.961 488.261 155.73 488.431 163.956 L 488.502 168.923 C 486.585 169.042 484.661 169.016 482.749 168.844 C 482.515 163.057 482.762 157.153 482.488 151.349 C 482.436 150.223 482.445 149.083 482.536 147.959 C 484.395 147.961 485.232 148.441 486.763 147.496 Z" fill="#b82121" style="stroke-width: 1;" transform="matrix(1, 0, 0, 1, 7.105427357601002e-15, 0)"/>
  <path d="M 206.361 169.552 C 206.254 170.204 205.916 170.382 205.333 170.744 C 200.007 174.045 194.767 177.378 188.817 179.335 C 182.425 180.875 173.536 180.829 166.828 180.927 C 164.833 184.529 162.254 187.877 160.515 191.685 C 159.919 192.991 159.003 194.304 158.389 195.609 C 157.504 195.206 156.718 194.242 155.531 194.328 C 155.116 194.358 154.599 194.167 154.205 194.03 C 157.187 192.021 162.691 180.878 165.459 178.142 C 184.203 176.386 189.674 179.765 206.361 169.552 Z" fill="url(#color-11)" style="stroke-width: 1;" transform="matrix(1, 0, 0, 1, 7.105427357601002e-15, 0)"/>
  <path d="M 147.701 198.173 C 147.809 197.984 147.921 197.799 148.038 197.615 C 149.276 195.701 152.043 194.483 154.205 194.03 C 154.599 194.167 155.116 194.358 155.531 194.328 C 156.718 194.242 157.504 195.206 158.389 195.609 C 159.177 196.937 160.037 198.432 160.023 200.013 C 160.004 204.276 154.858 207.6 151.053 205.35 C 148.263 203.701 147.586 201.218 147.701 198.173 Z" fill="#cc907b" style="stroke-width: 1;" transform="matrix(1, 0, 0, 1, 7.105427357601002e-15, 0)"/>
  <path d="M 153.394 197.149 C 155.917 196.685 158.267 200.442 153.831 202.127 C 150.234 202.261 149.239 198.233 153.394 197.149 Z" fill="#fdf7e9" style="stroke-width: 1;" transform="matrix(1, 0, 0, 1, 7.105427357601002e-15, 0)"/>
  <path d="M 142.141 138.587 C 144.413 138.685 151.746 150.402 153.635 152.788 C 153.202 152.89 152.347 152.607 151.85 152.488 C 150.203 151.722 145.108 144.177 143.128 142.462 C 142.521 141.936 140.373 140.379 140.1 140.078 C 140.679 139.448 141.414 139.044 142.141 138.587 Z" fill="#d6b19d" style="stroke-width: 1;" transform="matrix(1, 0, 0, 1, 7.105427357601002e-15, 0)"/>
  <path d="M 309.203 157.351 C 310.032 157.555 310.864 157.751 311.698 157.938 C 313.516 159.555 321.252 170.027 322.006 172.033 C 320.909 171.954 320.084 171.549 319.071 171.133 C 318.292 170.287 309.275 157.738 309.203 157.351 Z" fill="#d6b19d" style="stroke-width: 1;" transform="matrix(1, 0, 0, 1, 7.105427357601002e-15, 0)"/>
  <path d="M 152.901 157.681 L 153.645 157.695 L 153.725 157.887 C 151.272 161.208 145.69 170.574 142.479 171.856 C 141.933 171.871 142.153 171.955 141.757 171.72 C 141.742 171.394 141.787 171.03 142.03 170.788 C 144.999 167.818 148.745 158.486 152.901 157.681 Z" fill="#d6b19d" style="stroke-width: 1;" transform="matrix(1, 0, 0, 1, 7.105427357601002e-15, 0)"/>
  <path d="M 322.339 138.395 C 322.473 138.45 322.819 138.667 322.964 138.75 C 323.054 138.988 323.2 139.195 323.02 139.426 C 321.905 140.683 320.677 142.341 319.55 143.547 C 317.681 145.544 314.401 151.474 311.978 152.277 L 311.516 152.164 C 311.399 151.969 311.26 151.873 311.403 151.646 C 314.087 147.38 317.868 140.852 322.339 138.395 Z" fill="#d6b19d" style="stroke-width: 1;" transform="matrix(1, 0, 0, 1, 7.105427357601002e-15, 0)"/>
  <path d="M 403.599 149.01 C 404.404 149.466 404.576 151.205 404.659 152.07 C 403.881 151.4 403.817 150.12 403.599 149.01 Z" fill="#94938b" style="stroke-width: 1;" transform="matrix(1, 0, 0, 1, 7.105427357601002e-15, 0)"/>
</svg>